<svg version="1.0" xmlns="http://www.w3.org/2000/svg" width="820" height="820"><g fill="#bc5048"><path d="M242.4 632.5c-23.1-5-43.9-24.5-51.1-48-2-6.7-2-8.7-1.5-130.6l.2-62.5 12.8-9.6c24.8-18.7 39.4-33.5 45.9-46.5 3.3-6.7 3.5-7.7 3-14-.8-10.3-7-27.8-16.7-47l-8.8-17.2 5.4-2c2.9-1.1 8.8-2.5 13.1-3 4.6-.6 54.1-1 119.8-1.1l112.1-.1 1.7 7.2c2.5 10.3 7.1 20.7 13.3 29.9 3 4.5 5.4 9 5.4 10s-1.8 7.8-4 15.1c-2.6 8.7-4 15.3-4 19 0 5-.3 5.7-2.5 6.7-3.5 1.6-6.5 6.7-14.2 24.2-6.2 14.1-6.8 16.1-6.8 22.3 0 3.7-.2 6.7-.5 6.7s-4-1.1-8.3-2.5c-10.5-3.4-29.7-7.2-43.5-8.6-17.2-1.8-51.4-.7-62 2-16.1 4.1-30.4 12.3-41.5 24-12.3 12.8-15.4 28.8-9.5 47.9 1.1 3.5 1.7 7 1.4 7.7-.2.7-6 5.9-12.8 11.6-28.3 23.8-33.6 30.8-34.6 45.2-.4 6 0 8.2 1.8 12.5 4 9.2 21.6 23.9 37.5 31.3l8.4 3.8-2.8 6.3c-9.8 21.5-11.8 43.1-5.6 59.1.7 1.6-.8 1.7-22.1 1.6-15.1 0-25-.5-29-1.4zM652.9 431.3c-40.1-24.1-62.5-32.5-86.9-32.6-6.3 0-14.1.5-17.3 1.2-3.2.7-6 1.1-6.3.9-.2-.2 2.1-6 5.1-12.9 4.6-10.3 5.5-13.3 5.3-17.5-.1-4.6.2-5.4 3.1-8 1.8-1.7 7.2-9.5 12-17.4l8.7-14.5 9.5-1.7c26.1-4.6 43.3-15.9 62.6-41.5l7-9.1 3.1 5.1c9.9 16.4 9.9 16.7 10.7 92.5.6 55.4.5 64.2-.7 64.2-.8 0-7.9-3.9-15.9-8.7z"/><path d="m190.2 338.8.3-39.3 3.2-6.8c3.9-8.2 10.5-17.7 16.3-23.2l4.2-4 3 3.5c6 7 14.9 21.5 18 29.4 2.8 7.2 3.2 9.2 3.2 18.6.1 9.3-.2 11.1-2.5 16.1-4.1 8.7-27.9 32.5-42.7 42.8l-3.3 2.3.3-39.4zM210 260.3c-1.8-2-4.5-5.8-6.2-8.5-1.6-2.6-3.3-4.8-3.6-4.8-.4 0-5 1.4-10.2 3-5.2 1.6-9.6 2.8-9.7 2.6-.2-.2.1-4.3.7-9.2.5-4.9 1-9.7 1-10.6 0-1.4-2.9-.3-14 5.4-12.3 6.2-14.8 7.1-20.8 7.6-8.8.6-13.7-1-16.3-5.2-2.4-3.9-2.4-7.9 0-13.2 3.4-7.4 12.9-12.9 25.9-14.9 2.3-.4 4-1.1 3.7-1.6-.3-.5-5.1-3.2-10.7-6-28.3-14.6-50-39.7-61.1-70.6-5.9-16.5-7.3-39.1-3.3-53.8 4.1-14.8 14.1-29.2 27.1-39.2 8.7-6.8 26.4-15.6 37-18.5 10.9-3 36.6-3.2 46.5-.5 21.5 6.1 35.8 15.6 46.2 31 12 17.7 18.1 44.8 15.8 69.9-2 20.7-5 32.1-13 48.4-2.8 5.5-5 10.3-5 10.6 0 .3 2.4-.3 5.3-1.4 6.8-2.7 15.4-2.8 19.7-.2 4.8 2.8 8.3 9.7 7.7 15.3-1.3 11.6-10.6 16.1-33.4 16.1-7.3 0-13.3.3-13.3.8.1.4 4.1 5 9 10.2 4.9 5.2 8.6 9.8 8.2 10.2-.4.3-6.1 2.3-12.7 4.3s-12.4 4-12.8 4.4c-.4.4 1.1 4 3.3 8 2.3 4 4 7.4 3.8 7.5-3.2 2.5-9.9 6.6-10.6 6.6-.6 0-2.4-1.6-4.2-3.7zm-4.6-24.4c7.2-2.2 15.2-4.7 17.9-5.6l4.8-1.5-7.2-7.9c-6.9-7.7-10.6-10.5-15.8-11.9-2.3-.6-1.9-1.1 6-7.7 17.3-14.6 27.8-31.8 34.4-56.5 5.6-20.7 5.6-41.8 0-62.8-3.9-14.5-8.6-23.2-17.5-32.1-8.7-8.8-14.9-12.6-28-17-8.2-2.8-11.3-3.3-22.5-3.7-19.7-.7-32.4 2.5-50 12.7-10.9 6.2-23.9 19.2-28.3 28.3-5.6 11.4-7.5 21.3-6.9 35.3.6 14.4 4 26.2 12 41.9 15.8 31 43.9 52.6 80.2 61.7 9.8 2.5 9.1.5 7.1 19.2-.7 7-.8 11.7-.3 11.7.6 0 6.9-1.8 14.1-4.1zm-45.9-2.3c3-1.5 7.9-5 10.8-7.7l5.2-5-12.1.4c-15.5.5-20.6 2.6-23.6 9.5-2.6 5.7-1.6 6.4 7.4 5.9 4.6-.3 8.5-1.3 12.3-3.1zm93.9-31.1c3.8-.8 7.7-2.2 8.7-3.1 2.5-2.3 2.4-6.5-.3-9.9-1.8-2.4-2.7-2.7-6.2-2.3-5 .6-30.8 12.7-30.3 14.2.8 2.4 18.7 3.1 28.1 1.1z"/></g><g fill="#4c81c3"><path d="M241.2 803.4c-7.2-1.9-10.4-3.7-14-7.8-8.6-9.8-3.3-25.8 10-30.2 7.2-2.4 18.9-1.6 24.8 1.7 6.9 3.8 10.3 8.8 10.8 15.9.4 5 0 6.6-2.1 10.2-4.8 8.3-18.7 13.1-29.5 10.2zm15.8-19.3c.5-1.1 1-2.2 1-2.5 0-.8-13.4-.8-15.4 0-.9.3-1.6 1.5-1.6 2.5 0 1.7.8 1.9 7.5 1.9 6.3 0 7.6-.3 8.5-1.9zM309.5 790.9c-7.4-1.3-15.9-4.9-19.2-8.1-9-8.7-6-24.9 5.5-30.1 3.6-1.6 7.2-2.2 15.8-2.5 14.2-.5 21.5.9 26.1 5.2 6.4 5.8 7.4 17.8 2.3 26.1-2.2 3.6-8.2 8.1-12.1 9-3.9 1-13.9 1.2-18.4.4zm14.3-17.8c2.3-1.2 4.2-2.6 4.2-3.1 0-.6-1.5-2-3.2-3.1-2.8-1.7-4.5-2-11.5-1.6-4.8.2-8.8.9-9.8 1.7-2.3 1.9-1.5 6.2 1.5 7.8 3.5 1.9 13.6 1 18.8-1.7zM378.3 781c-10.5-2.2-18.1-7.5-23-15.9-2-3.2-2.7-6.1-3.1-11.7-.4-6.8-.2-8 2.7-13.8 5.9-12.1 17.4-18 35.1-18 9.7-.1 10.9.1 15.1 2.6 6.5 3.9 13.4 11.9 15.9 18.6 5.6 14.8-2.1 30.3-17.8 36.2-6.3 2.4-18.6 3.4-24.9 2zm21.7-18.4c4.8-2.5 7-5.4 7-9.6 0-5.6-3.2-9.7-10.3-13-10.1-4.9-19.8-3.4-26 3.9-5.1 6-2.9 15.2 4.5 19.3 4.4 2.5 19.6 2.1 24.8-.6zM454.9 754.6c-7.4-2.6-13.6-6.6-19.1-12.3-11.8-12.2-11-31.9 1.8-43.2 25.3-22.3 70.3-8.8 70.7 21.1.2 11.9-5.8 22.5-16 28.5-5.9 3.4-21.6 8.3-26.8 8.3-2.2 0-7-1.1-10.6-2.4zm20.6-15.7c8.4-2.1 17.5-13.1 15.9-19.3-.8-3.3-7.8-11.2-11.5-13.2-1.6-.8-5.5-1.9-8.5-2.5-21.1-3.9-36.7 18.7-21.2 30.4 6.8 5.1 16.3 6.9 25.3 4.6z"/><path d="M574 697.3c-22.6-2.4-51.1-11.1-80.3-24.4-7-3.3-14-5.9-15.5-5.9-2.8 0-3.3.3-15.6 8.8-21.2 14.7-50.1 23.1-69.9 20.3-15.8-2.2-26.7-8.1-39-21.1-4.1-4.3-8.6-8.1-9.9-8.4-1.3-.2-5.8-.8-10-1.4-14.9-1.9-29.5-11.8-35.8-24.5l-3.1-6.2 7.7-.3c7.3-.3 7.6-.4 6.9-2.5-1.3-4.1-1.7-22.4-.6-27.6 1.9-9.1 7-20.6 14.1-32l6.9-11.2-12.2-5.6c-17.6-8.2-30.6-15.1-34.9-18.4-6.9-5.5-9.6-15.6-6.3-23.5 2-4.9 13.3-16.3 21.9-22.2 3.9-2.7 11.6-7.5 17.1-10.7 5.5-3.2 10.2-6 10.4-6.1.2-.2-1.6-4.5-4.2-9.6-5.3-10.8-7.2-18.1-6.4-24.8 1.4-11.8 12.2-24.6 26.8-31.7 10.2-5.1 17.4-7 33.3-8.9 47.6-5.6 87.3 5.4 106.1 29.4 2.5 3.2 6.4 10.2 8.8 16l4.3 10.2 5.9-6.6c12.1-13.7 29.4-24.7 45.5-28.9 9.9-2.5 27.6-3 39-1.1 23.9 4.2 41.8 13 72.8 36l12.4 9.1-.7 54.5c-.8 61.9-1 64.1-8 78.5-9.4 19.3-26.2 31.8-48.3 36.1-6.2 1.2-32 1.4-155 1.4H310.6l4.4 4.6c5.3 5.3 16.1 11 22.8 11.9 14.5 1.9 15.2 2.2 23.1 10.3 13.8 13.9 24.1 18.6 40.6 18.5 19.8-.1 38-7.5 62-25.1 12.5-9.2 11.4-9.4 45 5 44.8 19.2 61.8 24 85.5 24.1 18.4.1 31-2.7 46-10.4 15.2-7.8 32.1-23.8 41.1-38.9 13.9-23.5 15.8-55.4 4-70.1l-3-3.7 7.7-7.8c19.5-20 22.3-41.5 8-63.5-4.7-7.3-14.1-16.8-22.2-22.4l-5.6-3.8V442l10.8 7.2c13.5 9 30.2 25.4 36 35.3 5.9 10.2 8.2 17.8 8.2 27.8 0 9.9-1.9 17.9-6.3 26.1-3.1 5.9-12.2 16.3-16.1 18.3-1.8 1-1.8 1.3 1.2 8.6 11.5 27.5 7.6 54.8-12.1 85.1-21.1 32.3-54.6 48-101.2 47.4-7.1 0-14.6-.3-16.5-.5z"/></g><g fill="#ffd51e"><path d="M493.7 409.8c-5.1-2.2-7-5.6-4.7-8.3 1.7-2.1 4.7-1.8 10 .8 4.8 2.3 6.3 5.5 4 8.3-1.6 1.8-3.5 1.7-9.3-.8zM500.6 396.6c-10.4-4.6-19.3-9.1-19.8-10-1.2-2.2-.1-5.4 2.2-6.1 1.7-.5 37.4 14.1 40.8 16.8 2.5 2 .2 7.8-3.1 7.6-.7 0-9.7-3.8-20.1-8.3zM506.2 381.7c-10.1-4.5-18.8-9-19.3-9.9-1.4-2.5.6-5.8 3.4-5.8 1.2 0 10.8 3.7 21.2 8.3 15.8 6.9 19.1 8.7 19.3 10.6.4 2.8-1.4 5.1-4.2 5-1.1 0-10.4-3.7-20.4-8.2zM512.2 366.7c-14.9-6.6-18.4-8.5-18.8-10.4-.8-2.9 1.1-5.3 4-5.2 3.3.1 38.8 16.2 40 18.2 1.6 2.5-.4 5.2-4 5.4-1.8.1-10-3-21.2-8zM536.2 348c-3.8-1.8-6.2-3.5-6.2-4.5 0-2.3 9.3-24.6 13.8-33 4.2-7.9 7.1-10 19-13.7l7.2-2.3-9.7-9.7-9.8-9.8 10.5-.1c5.8-.1 13.6-.4 17.4-.8l6.8-.6-11.7-10c-13.8-11.8-15.1-10.9 14-10.2 13.7.3 22 1 26.5 2.1 6.9 1.8 20.9 8.3 24.9 11.6l2.3 2-6.7 9c-3.7 4.9-10.1 12.1-14.2 16-12.1 11.3-30 18.9-44.6 19-8 0-9.3 1.3-20.1 19.5-5.5 9.1-10.7 17-11.6 17.5-1.2.6-3.5.1-7.8-2z"/><path d="M515.1 338.9c-5.8-2.3-9-4.2-9.5-5.5-.3-.8.5-4.9 1.9-9.2 3.4-10.9 7.5-27.6 7.5-30.6 0-1.4-2.1-5.2-5-9-2.7-3.6-6.1-8.7-7.6-11.2-2.9-4.9-7.4-16.5-7.4-18.9 0-1.3 3.9-1.5 25.8-1.5l25.7.1 6.9 6.3 6.9 6.3-16.2.8c-8.8.4-16.1 1-16 1.3 0 .4 5.6 5.4 12.5 11.1 6.8 5.7 12.4 10.7 12.4 11.1 0 .5-2.5 1.6-5.5 2.4-7.4 2.2-9 4.6-18.1 25.6-7.5 17.5-9.8 22.1-11.2 21.9-.4 0-1.8-.5-3.1-1zM667.7 251.9c-2.7-1.5-2.3-7.7.6-8.9 2.1-.8 70.5-4.6 71.2-3.8.2.1.6 2.4 1 4.9l.7 4.5-19.4 1.2c-10.6.7-25.6 1.5-33.3 1.8-7.7.3-15.1.7-16.5.9-1.4.2-3.3-.1-4.3-.6zM659.5 212.6c-.8-1.9-1.2-4.2-.9-5 .3-.9 5.7-3.1 12.7-5.4 6.7-2.2 23.4-7.8 37-12.5 27.6-9.6 25.1-9.5 27-1.6.6 2.5.6 2.6-36.2 15.2-20.3 7-37.2 12.7-37.6 12.7-.3 0-1.2-1.5-2-3.4zM500.2 181.3c-31.6-26.7-50.2-42.7-50.2-43.2 0-.4 1.5-2.1 3.2-3.9l3.3-3.1 28 24c15.4 13.2 28.1 24.4 28.3 24.9.4 1.1-3.8 7-4.9 7-.5 0-3.9-2.6-7.7-5.7zM639.5 182.6c-1.4-1.4-2.5-3.1-2.5-3.8 0-.6 11.8-13.1 26.3-27.5 28.2-28.4 29.3-29.1 32.7-23.1l1.5 2.8-26 26.1c-14.3 14.3-26.8 26.5-27.8 27-1.3.8-2.3.4-4.2-1.5zM534.2 159.7c-.8-1-15.9-33.7-28.8-62.4-2.6-5.8-2.7-5.7 4.1-8.3 2.5-.9 2.7-.7 5 4.3 28 61.8 28.5 63.1 27.3 64.2-2.6 2.3-6.6 3.5-7.6 2.2zM608 159.5c-1.9-.6-3.6-1.9-3.8-2.8-.4-1.9 27.2-65.8 29.8-68.9 1.5-2 1.8-2 4.8-.4 1.8.9 3.2 2.1 3.2 2.6 0 .7-29.8 70.1-30.4 70.6 0 .1-1.7-.4-3.6-1.1zM569.2 150.8c-.9-.9-1.2-10.5-1.2-36.9 0-19.7.3-36.4.6-37.3.4-1 1.8-1.6 3.9-1.6 6.4 0 6-2.4 5.7 37.7-.2 24.1-.7 37.2-1.4 38-1.3 1.6-6 1.7-7.6.1z"/></g></svg>